<?xml version="1.0" encoding="utf-8"?>
<!-- Generator: Adobe Illustrator 25.2.1, SVG Export Plug-In . SVG Version: 6.00 Build 0)  -->
<svg version="1.1" id="Layer_1" xmlns="http://www.w3.org/2000/svg" xmlns:xlink="http://www.w3.org/1999/xlink" x="0px" y="0px"
	 viewBox="0 0 128 128" style="enable-background:new 0 0 128 128;" xml:space="preserve">
<style type="text/css">
	.st0{fill:#FFA600;}
	.st1{fill:#A3A3A3;}
	.st2{fill:#FFBDBD;}
	.st3{fill:url(#SVGID_1_);}
	.st4{fill:none;stroke:#808080;stroke-width:3;stroke-linecap:round;stroke-linejoin:round;stroke-miterlimit:10;}
	.st5{fill:#FFFFFF;}
	.st6{fill:url(#SVGID_2_);}
	.st7{fill:none;stroke:#404040;stroke-width:3;stroke-linecap:round;stroke-linejoin:round;stroke-miterlimit:10;}
	.st8{fill:#404040;}
	.st9{display:none;}
	.st10{display:inline;}
	.st11{opacity:0.6;}
	.st12{opacity:0.61;fill:none;stroke:#000000;stroke-width:0.2625;stroke-miterlimit:10;enable-background:new    ;}
	.st13{opacity:0.61;fill:none;stroke:#000000;stroke-width:0.25;stroke-miterlimit:10;enable-background:new    ;}
	.st14{opacity:0.61;}
	.st15{opacity:0.61;fill:none;stroke:#000000;stroke-width:0.2578;stroke-miterlimit:10;enable-background:new    ;}
	.st16{opacity:0.61;fill:none;stroke:#000000;stroke-width:0.2628;stroke-miterlimit:10;enable-background:new    ;}
	.st17{opacity:0.61;fill:none;stroke:#000000;stroke-width:0.2627;stroke-miterlimit:10;enable-background:new    ;}
	.st18{opacity:0.2;}
	.st19{clip-path:url(#SVGID_4_);}
	.st20{fill:none;stroke:#000000;stroke-width:0.25;stroke-miterlimit:10;}
	.st21{opacity:0.3;fill:#F44336;enable-background:new    ;}
</style>
<g id="Layer_2_1_">
	<g>
		<g>
			<path class="st0" d="M27.9,54.4C15.6,54.4,5.5,44.3,5.5,32S15.6,9.5,27.9,9.5S50.3,19.6,50.3,32S40.3,54.4,27.9,54.4z"/>
			<path class="st1" d="M27.9,11c11.5,0,20.9,9.4,20.9,20.9s-9.4,20.9-20.9,20.9S7,43.5,7,32S16.4,11,27.9,11 M27.9,8
				C14.7,8,4,18.8,4,32s10.7,23.9,23.9,23.9S51.9,45.2,51.9,32S41.1,8,27.9,8L27.9,8z"/>
		</g>
		<circle class="st2" cx="27.9" cy="32" r="13.8"/>
	</g>
	<g>
		<g>
			<path class="st0" d="M100.1,54.4c-12.4,0-22.4-10.1-22.4-22.4S87.7,9.5,100.1,9.5c12.4,0,22.4,10.1,22.4,22.4
				S112.4,54.4,100.1,54.4z"/>
			<path class="st1" d="M100.1,11C111.6,11,121,20.4,121,32s-9.4,20.9-20.9,20.9S79.2,43.5,79.2,32S88.5,11,100.1,11 M100.1,8
				C86.9,8,76.1,18.8,76.1,32s10.7,23.9,23.9,23.9S124,45.2,124,32S113.3,8,100.1,8L100.1,8z"/>
		</g>
		<circle class="st2" cx="100.1" cy="32" r="13.8"/>
	</g>
	<g>
		
			<linearGradient id="SVGID_1_" gradientUnits="userSpaceOnUse" x1="64" y1="8.54" x2="64" y2="99.55" gradientTransform="matrix(1 0 0 -1 0 127)">
			<stop  offset="0.1101" style="stop-color:#B3B3B3"/>
			<stop  offset="0.2228" style="stop-color:#CACACA"/>
			<stop  offset="0.3923" style="stop-color:#E7E7E7"/>
			<stop  offset="0.4892" style="stop-color:#F2F2F2"/>
		</linearGradient>
		<path class="st3" d="M64,118.5c-7.5,0-20-3.3-31.1-10.7c-6.9-4.6-18.5-14.5-18.5-29.3C14.5,54,33.4,27.5,64,27.5
			s49.5,26.5,49.5,51.1c0,14.7-11.6,24.7-18.5,29.3C84,115.2,71.5,118.5,64,118.5z"/>
		<path class="st1" d="M64,29c13.6,0,26,5.5,34.9,15.5c8.3,9.3,13.1,21.7,13.1,34.1c0,5.5-1.7,10.8-5.1,15.8
			c-3,4.5-7.3,8.6-12.7,12.2C83.5,113.8,71.3,117,64,117s-19.5-3.2-30.2-10.4c-5.4-3.6-9.7-7.7-12.7-12.2c-3.4-5-5.1-10.3-5.1-15.8
			c0-12.4,4.8-24.8,13.1-34.1C38,34.5,50.5,29,64,29 M64,26c-31.1,0-51,26.5-51,52.6S47,120,64,120s51-15.3,51-41.4S95.1,26,64,26
			L64,26z"/>
	</g>
	<g>
		<path class="st0" d="M16.4,76.2l95.6,0c1.8,29.2-33,41.6-50.8,40.6C42.8,115.7,12.2,99.5,16.4,76.2z"/>
	</g>
	<path class="st4" d="M63.4,86c0,4.3-3.5,7.7-7.7,7.7S48,90.2,48,86"/>
	<path class="st4" d="M79.3,86c0,4.3-3.4,7.7-7.7,7.7s-7.7-3.4-7.7-7.7"/>
	<path class="st5" d="M69.6,94.3L64.9,90c-0.7-0.6-1.7-0.6-2.4,0l-4.9,4.3c-0.4,0.4-0.7,0.8-0.7,1.3v-0.1c0,3.5,3.1,6.4,6.6,6.4H64
		c3.5,0,6-2.9,6-6.4v0C70,95.1,70,94.7,69.6,94.3z"/>
	
		<linearGradient id="SVGID_2_" gradientUnits="userSpaceOnUse" x1="64" y1="53.3542" x2="64" y2="39.352" gradientTransform="matrix(1 0 0 -1 0 127)">
		<stop  offset="0.1628" style="stop-color:#575757"/>
		<stop  offset="0.6453" style="stop-color:#262626"/>
		<stop  offset="1" style="stop-color:#000000"/>
	</linearGradient>
	<ellipse class="st6" cx="64" cy="80.2" rx="10.6" ry="6.6"/>
	<g>
		<g>
			<line class="st7" x1="20.2" y1="107.3" x2="33.3" y2="95.1"/>
			<line class="st7" x1="31.7" y1="89.7" x2="15.4" y2="96.2"/>
			<line class="st7" x1="13" y1="84.5" x2="31" y2="84.5"/>
		</g>
		<g>
			<line class="st7" x1="108" y1="107.3" x2="94.8" y2="95.1"/>
			<line class="st7" x1="96.4" y1="89.7" x2="112.8" y2="96.2"/>
			<line class="st7" x1="115" y1="84.5" x2="98" y2="84.5"/>
		</g>
	</g>
	<g>
		<path class="st8" d="M91.8,65.6l-7.7-1.8l7.9-3.7c0.1,0,0.2-0.1,0.3-0.2c1.7-1.2,1.9-3.5,0.4-5c-1.2-1.2-3-1.2-4.3-0.3
			C85.2,56.8,77.9,62,75,64c-0.5,0.4-0.4,1.2,0.1,1.4l14.5,6.4c0.1,0,0.2,0.1,0.3,0.1c1.9,0.6,4-0.6,4.3-2.7
			C94.5,67.6,93.4,66.1,91.8,65.6z"/>
		<path class="st8" d="M36.2,65.6l7.7-1.8L36,60.1c-0.1,0-0.2-0.1-0.3-0.2c-1.7-1.2-1.9-3.5-0.4-5c1.2-1.2,3-1.2,4.3-0.3
			C42.8,56.8,50.1,62,53,64c0.5,0.4,0.4,1.2-0.1,1.4l-14.5,6.4c-0.1,0-0.2,0.1-0.3,0.1c-1.9,0.6-4-0.6-4.3-2.7
			C33.5,67.6,34.6,66.1,36.2,65.6z"/>
	</g>
</g>
<g id="Layer_1_1_" class="st9">
	<g class="st10">
		<g class="st11">
			<circle class="st12" cx="64" cy="64" r="28"/>
			<line class="st13" x1="84" y1="0" x2="84" y2="128"/>
			<line class="st13" x1="44" y1="0" x2="44" y2="128"/>
			<line class="st13" x1="64" y1="0" x2="64" y2="128"/>
			<line class="st13" x1="128" y1="64" x2="0" y2="64"/>
			<line class="st13" x1="128" y1="44" x2="0" y2="44"/>
			<line class="st13" x1="128" y1="83.8" x2="0" y2="83.8"/>
			<line class="st13" x1="128" y1="128" x2="0" y2="0"/>
			<line class="st13" x1="0" y1="128" x2="128" y2="0"/>
			<g class="st14">
				<path d="M64,4.3c32.9,0,59.7,26.8,59.7,59.7S96.9,123.7,64,123.7S4.3,96.9,4.3,64S31.1,4.3,64,4.3 M64,4C30.9,4,4,30.9,4,64
					s26.9,60,60,60s60-26.9,60-60S97.1,4,64,4L64,4z"/>
			</g>
			<path class="st15" d="M108,116H20c-4.4,0-8-3.6-8-8V20c0-4.4,3.6-8,8-8H108c4.4,0,8,3.6,8,8v87.9C116,112.4,112.4,116,108,116z"
				/>
			<path class="st16" d="M100,124H28c-4.4,0-8-3.6-8-8V12c0-4.4,3.6-8,8-8h72c4.4,0,8,3.6,8,8v104C108,120.4,104.4,124,100,124z"/>
			<path class="st17" d="M113.8,108H14.2C8.6,108,4,103.4,4,97.8V30.3c0-5.6,4.6-10.2,10.2-10.2h99.5c5.6,0,10.2,4.6,10.2,10.2v67.5
				C124,103.4,119.4,108,113.8,108z"/>
		</g>
		<g>
			<g class="st18">
				<g>
					<defs>
						<rect id="SVGID_3_" width="128" height="128"/>
					</defs>
					<clipPath id="SVGID_4_">
						<use xlink:href="#SVGID_3_"  style="overflow:visible;"/>
					</clipPath>
					<g class="st19">
						<g>
							<line class="st20" x1="-28" y1="160" x2="-28" y2="-32"/>
							<line class="st20" x1="-24" y1="160" x2="-24" y2="-32"/>
							<line class="st20" x1="-20" y1="160" x2="-20" y2="-32"/>
							<line class="st20" x1="-16" y1="160" x2="-16" y2="-32"/>
							<line class="st20" x1="-12" y1="160" x2="-12" y2="-32"/>
							<line class="st20" x1="-8" y1="160" x2="-8" y2="-32"/>
							<line class="st20" x1="-4" y1="160" x2="-4" y2="-32"/>
							<line class="st20" x1="0" y1="160" x2="0" y2="-32"/>
							<line class="st20" x1="4" y1="160" x2="4" y2="-32"/>
							<line class="st20" x1="8" y1="160" x2="8" y2="-32"/>
							<line class="st20" x1="12" y1="160" x2="12" y2="-32"/>
							<line class="st20" x1="16" y1="160" x2="16" y2="-32"/>
							<line class="st20" x1="20" y1="160" x2="20" y2="-32"/>
							<line class="st20" x1="24" y1="160" x2="24" y2="-32"/>
							<line class="st20" x1="28" y1="160" x2="28" y2="-32"/>
							<line class="st20" x1="32" y1="160" x2="32" y2="-32"/>
							<line class="st20" x1="36" y1="160" x2="36" y2="-32"/>
							<line class="st20" x1="40" y1="160" x2="40" y2="-32"/>
							<line class="st20" x1="44" y1="160" x2="44" y2="-32"/>
							<line class="st20" x1="48" y1="160" x2="48" y2="-32"/>
							<line class="st20" x1="52" y1="160" x2="52" y2="-32"/>
							<line class="st20" x1="56" y1="160" x2="56" y2="-32"/>
							<line class="st20" x1="60" y1="160" x2="60" y2="-32"/>
							<line class="st20" x1="64" y1="160" x2="64" y2="-32"/>
							<line class="st20" x1="68" y1="160" x2="68" y2="-32"/>
							<line class="st20" x1="72" y1="160" x2="72" y2="-32"/>
							<line class="st20" x1="76" y1="160" x2="76" y2="-32"/>
							<line class="st20" x1="80" y1="160" x2="80" y2="-32"/>
							<line class="st20" x1="84" y1="160" x2="84" y2="-32"/>
							<line class="st20" x1="88" y1="160" x2="88" y2="-32"/>
							<line class="st20" x1="92" y1="160" x2="92" y2="-32"/>
							<line class="st20" x1="96" y1="160" x2="96" y2="-32"/>
							<line class="st20" x1="100" y1="160" x2="100" y2="-32"/>
							<line class="st20" x1="104" y1="160" x2="104" y2="-32"/>
							<line class="st20" x1="108" y1="160" x2="108" y2="-32"/>
							<line class="st20" x1="112" y1="160" x2="112" y2="-32"/>
							<line class="st20" x1="116" y1="160" x2="116" y2="-32"/>
							<line class="st20" x1="120" y1="160" x2="120" y2="-32"/>
							<line class="st20" x1="124" y1="160" x2="124" y2="-32"/>
							<line class="st20" x1="128" y1="160" x2="128" y2="-32"/>
							<line class="st20" x1="132" y1="160" x2="132" y2="-32"/>
							<line class="st20" x1="136" y1="160" x2="136" y2="-32"/>
							<line class="st20" x1="137" y1="166.1" x2="137" y2="-26"/>
							<line class="st20" x1="144" y1="160" x2="144" y2="-32"/>
							<line class="st20" x1="148" y1="160" x2="148" y2="-32"/>
							<line class="st20" x1="152" y1="160" x2="152" y2="-32"/>
							<line class="st20" x1="156" y1="160" x2="156" y2="-32"/>
						</g>
						<g>
							<line class="st20" x1="-32" y1="-28" x2="160" y2="-28"/>
							<line class="st20" x1="-32" y1="-24" x2="160" y2="-24"/>
							<line class="st20" x1="-32" y1="-20" x2="160" y2="-20"/>
							<line class="st20" x1="-32" y1="-16" x2="160" y2="-16"/>
							<line class="st20" x1="-32" y1="-12" x2="160" y2="-12"/>
							<line class="st20" x1="-32" y1="-8" x2="160" y2="-8"/>
							<line class="st20" x1="-32" y1="-4" x2="160" y2="-4"/>
							<line class="st20" x1="-32" y1="0" x2="160" y2="0"/>
							<line class="st20" x1="-32" y1="4" x2="160" y2="4"/>
							<line class="st20" x1="-32" y1="8" x2="160" y2="8"/>
							<line class="st20" x1="-32" y1="12" x2="160" y2="12"/>
							<line class="st20" x1="-32" y1="16" x2="160" y2="16"/>
							<line class="st20" x1="-32" y1="20" x2="160" y2="20"/>
							<line class="st20" x1="-32" y1="24" x2="160" y2="24"/>
							<line class="st20" x1="-32" y1="28" x2="160" y2="28"/>
							<line class="st20" x1="-32" y1="32" x2="160" y2="32"/>
							<line class="st20" x1="-32" y1="36" x2="160" y2="36"/>
							<line class="st20" x1="-32" y1="40" x2="160" y2="40"/>
							<line class="st20" x1="-32" y1="44" x2="160" y2="44"/>
							<line class="st20" x1="-32" y1="48" x2="160" y2="48"/>
							<line class="st20" x1="-32" y1="52" x2="160" y2="52"/>
							<line class="st20" x1="-32" y1="56" x2="160" y2="56"/>
							<line class="st20" x1="-32" y1="60" x2="160" y2="60"/>
							<line class="st20" x1="-32" y1="64" x2="160" y2="64"/>
							<line class="st20" x1="-32" y1="68" x2="160" y2="68"/>
							<line class="st20" x1="-32" y1="72" x2="160" y2="72"/>
							<line class="st20" x1="-32" y1="76" x2="160" y2="76"/>
							<line class="st20" x1="-32" y1="80" x2="160" y2="80"/>
							<line class="st20" x1="-32" y1="84" x2="160" y2="84"/>
							<line class="st20" x1="-32" y1="88" x2="160" y2="88"/>
							<line class="st20" x1="-32" y1="92" x2="160" y2="92"/>
							<line class="st20" x1="-32" y1="96" x2="160" y2="96"/>
							<line class="st20" x1="-32" y1="100" x2="160" y2="100"/>
							<line class="st20" x1="-32" y1="104" x2="160" y2="104"/>
							<line class="st20" x1="-32" y1="108" x2="160" y2="108"/>
							<line class="st20" x1="-32" y1="112" x2="160" y2="112"/>
							<line class="st20" x1="-32" y1="116" x2="160" y2="116"/>
							<line class="st20" x1="-32" y1="120" x2="160" y2="120"/>
							<line class="st20" x1="-32" y1="124" x2="160" y2="124"/>
							<line class="st20" x1="-32" y1="128" x2="160" y2="128"/>
							<line class="st20" x1="-32" y1="132" x2="160" y2="132"/>
							<line class="st20" x1="-32" y1="136" x2="160" y2="136"/>
							<line class="st20" x1="-32" y1="140" x2="160" y2="140"/>
							<line class="st20" x1="-32" y1="144" x2="160" y2="144"/>
							<line class="st20" x1="-32" y1="148" x2="160" y2="148"/>
							<line class="st20" x1="-32" y1="152" x2="160" y2="152"/>
							<line class="st20" x1="-32" y1="156" x2="160" y2="156"/>
						</g>
						<path d="M159.8-31.8v191.5H-31.8V-31.8H159.8 M160-32H-32v192h192V-32L160-32z"/>
					</g>
				</g>
			</g>
			<g>
				<rect class="st21" width="4" height="128"/>
				<rect x="124" class="st21" width="4" height="128"/>
				<rect x="4" class="st21" width="120" height="4"/>
				<rect x="4" y="124" class="st21" width="120" height="4"/>
			</g>
		</g>
	</g>
</g>
</svg>
